# AST/ASF file generated using VICON BodyLanguage
# -----------------------------------------------
:version 1.10
:name VICON
:units
  mass 1.0
  length 0.45
  angle deg
:documentation
   .ast/.asf automatically generated from VICON data using
   VICON BodyBuilder and BodyLanguage model FoxedUp or BRILLIANT.MOD
:root
   order TX TY TZ RX RY RZ
   axis XYZ
   position 0 0 0  
   orientation 0 0 0 
:bonedata
  begin
     id 1 
     name lhipjoint
     direction 0.690799 -0.707083 0.151096 
     length 2.54797 
     axis 0 0 0  XYZ
  end
  begin
     id 2 
     name lfemur
     direction 0.34202 -0.939693 0  
     length 7.21646  
     axis 0 0 20  XYZ
    dof rx ry rz
    limits (-160.0 20.0)
           (-70.0 70.0)
           (-60.0 70.0)
  end
  begin
     id 3 
     name ltibia
     direction 0.34202 -0.939693 0   
     length 8.16759   
     axis 0 0 20   XYZ
    dof rx
    limits (-10.0 170.0)
  end
  begin
     id 4 
     name lfoot
     direction 0.0487203 -0.133858 0.989802   
     length 1.93375   
     axis -90 7.62852e-016 20   XYZ
    dof rx rz
    limits (-45.0 90.0)
           (-70.0 20.0)
  end
  begin
     id 5 
     name ltoes
     direction 1.53453e-011 -4.21783e-011 1   
     length 0.979747   
     axis -90 7.62852e-016 20   XYZ
    dof rx
    limits (-90.0 20.0)
  end
  begin
     id 6 
     name rhipjoint
     direction -0.694693 -0.703425 0.150315   
     length 2.56122  
     axis 0 0 0  XYZ 
  end
  begin
     id 7 
     name rfemur
     direction -0.34202 -0.939693 0   
     length 7.36786   
     axis 0 0 -20   XYZ
    dof rx ry rz
    limits (-160.0 20.0)
           (-70.0 70.0)
           (-70.0 60.0)
  end
  begin
     id 8 
     name rtibia
     direction -0.34202 -0.939693 0   
     length 8.07288   
     axis 0 0 -20   XYZ
    dof rx
    limits (-10.0 170.0)
 end
 begin
     id 9 
     name rfoot
     direction -0.0428397 -0.117701 0.992125   
     length 1.88295  
     axis -90 -7.62852e-016 -20   XYZ
    dof rx rz
    limits (-45.0 90.0)
           (-20.0 70.0)
  end
  begin
     id 10 
     name rtoes
     direction -1.53456e-011 -4.2187e-011 1   
     length 0.955578   
     axis -90 -7.62852e-016 -20   XYZ
    dof rx
    limits (-90.0 20.0)
  end
  begin
     id 11 
     name lowerback
     direction 0.0288145 0.999398 -0.0193241   
     length 1.92149   
     axis 0 0 0   XYZ
    dof rx ry rz
    limits (-20.0 45.0)
           (-30.0 30.0)
           (-30.0 30.0)
  end
  begin
     id 12 
     name upperback
     direction 0.0233784 0.998099 0.0570278   
     length 1.90435   
     axis 0 0 0   XYZ
    dof rx ry rz
    limits (-20.0 45.0)
           (-30.0 30.0)
           (-30.0 30.0)
  end
  begin
     id 13 
     name thorax
     direction 0.0096694 0.997833 0.0650817   
     length 1.9111   
     axis 0 0 0   XYZ
    dof rx ry rz
    limits (-20.0 45.0)
           (-30.0 30.0)
           (-30.0 30.0)
  end
  begin
     id 14 
     name lowerneck
     direction 0.00516803 0.999916 0.0118722   
     length 1.74664   
     axis 0 0 0   XYZ
    dof rx ry rz
    limits (-20.0 45.0)
           (-30.0 30.0)
           (-30.0 30.0)
  end
  begin
     id 15 
     name upperneck
     direction -0.0510851 0.996117 -0.071696   
     length 1.68498   
     axis 0 0 0   XYZ
    dof rx ry rz
    limits (-20.0 45.0)
           (-30.0 30.0)
           (-30.0 30.0)
  end
  begin
     id 16
     name head
     direction -0.019188 0.999436 -0.0275702  
     length 1.83483  
     axis 0 0 0   XYZ
    dof rx ry rz
    limits (-20.0 45.0)
           (-30.0 30.0)
           (-30.0 30.0)
  end
  begin
     id 17 
     name lclavicle
     direction 0.967006 0.248456 -0.0562957  
     length 3.39395  
     axis 0 0 0   XYZ
    dof ry rz
    limits (-20.0 10.0)
           (0.0 20.0)
  end
  begin
     id 18 
     name lhumerus
     direction 1 -4.48962e-011 -5.62711e-019   
     length 5.24318   
     axis 180 -30 -90   XYZ
    dof rx ry rz
    limits (-60.0 90.0)
           (-90.0 90.0)
           (-90.0 90.0)
  end
  begin
     id 19
     name lradius
     direction 1 -4.48966e-011 7.90625e-027   
     length 2.98999   
     axis 180 -30 -90   XYZ
    dof rx
    limits (-10.0 170.0)
  end
  begin
     id 20
     name lwrist
     direction 1 -4.48959e-011 1.61068e-026   
     length 1.49499   
     axis -9.31229e-015 90 90   XYZ
    dof ry
    limits (-180.0 0.0)
 end
  begin
     id 21 
     name lhand
     direction 1 -4.49017e-011 3.22136e-026   
     length 0.726745   
     axis -2.0555e-014 90 90   XYZ
    dof rx rz
    limits (-90.0 90.0)
           (-45.0 45.0)
  end
  begin
     id 22 
     name lfingers
     direction 1 -4.4898e-011 6.44272e-026   
     length 0.58592   
     axis -4.11101e-014 90 90   XYZ
    dof rx
    limits (0.0 90.0)
  end
  begin
     id 23
     name lthumb
     direction 0.707107 -6.34922e-011 0.707107   
     length 0.841268   
     axis -90 45 2.85299e-015   XYZ
    dof rx rz
    limits (-45.0 45.0)
           (-45.0 45.0)
  end
  begin
     id 24 
     name rclavicle
     direction -0.972232 0.230238 0.0419005   
     length 3.40416  
     axis 0 0 0   XYZ 
    dof ry rz
    limits (-10.0 20.0)
           (-20.0 0.0)
  end
  begin
     id 25 
     name rhumerus
     direction -1 -4.48976e-011 2.48487e-027  
     length 5.37045   
     axis 180 30 90   XYZ
    dof rx ry rz
    limits (-90.0 60.0)
           (-90.0 90.0)
           (-90.0 90.0)
  end
  begin
     id 26 
     name rradius
     direction -1 -4.48942e-011 7.87951e-027   
     length 2.92792   
     axis 180 30 90   XYZ
    dof rx
    limits (-10.0 170.0)
  end
  begin
     id 27 
     name rwrist
     direction -1 -4.48969e-011 1.61068e-026   
     length 1.46396   
     axis -9.31229e-015 -90 -90   XYZ
    dof ry
    limits (-180.0 0.0)
  end
  begin
     id 28
     name rhand
     direction -1 -4.49043e-011 3.22136e-026   
     length 0.784497   
     axis -2.0555e-014 -90 -90   XYZ
    dof rx rz
    limits (-90.0 90.0)
           (-45.0 45.0)
  end
  begin
     id 29
     name rfingers
     direction -1 -4.48823e-011 6.44272e-026   
     length 0.632482   
     axis -4.11101e-014 -90 -90   XYZ
    dof rx
    limits (0.0 90.0)
  end
  begin
     id 30
     name rthumb
     direction -0.707107 -6.34923e-011 0.707107   
     length 0.908121   
     axis -90 -45 -2.85299e-015   XYZ
    dof rx rz
    limits (-45.0 45.0)
           (-45.0 45.0)
  end
:hierarchy
  begin
    root lhipjoint rhipjoint lowerback
    lhipjoint lfemur
    lfemur ltibia
    ltibia lfoot
    lfoot ltoes
    rhipjoint rfemur
    rfemur rtibia
    rtibia rfoot
    rfoot rtoes
    lowerback upperback
    upperback thorax
    thorax lowerneck lclavicle rclavicle
    lowerneck upperneck
    upperneck head
    lclavicle lhumerus
    lhumerus lradius
    lradius lwrist
    lwrist lhand lthumb
    lhand lfingers
    rclavicle rhumerus
    rhumerus rradius
    rradius rwrist
    rwrist rhand rthumb
    rhand rfingers
  end

#!OML:ASF E:\Style6\Style6.ASF
:FULLY-SPECIFIED
:DEGREES
1962
root 0.495918 18.2091 0.564486 13.4463 -0.971464 -0.605726
lowerback 2.46367 -0.841588 5.056
upperback -11.5824 -0.146667 4.48579
thorax -14.0978 -0.303538 2.1684
lowerneck -4.96242 1.15555 2.96434
upperneck -0.492674 1.4762 -8.67629
head 0.810565 0.63301 -3.28345
rclavicle -1.03368e-014 -6.36111e-015
rhumerus -34.8582 8.0696 -41.4218
rradius 102.7
rwrist 4.77482
rhand -39.3631 21.0778
rfingers 7.12502
rthumb -12.3538 -8.53721
lclavicle -1.03368e-014 -6.36111e-015
lhumerus -19.604 -0.722999 26.8489
lradius 89.5257
lwrist -11.0321
lhand -40.5277 21.1059
lfingers 7.12502
lthumb -13.4765 50.6499
rfemur -19.0211 9.20222 16.3645
rtibia 15.7009
rfoot -6.45915 -13.3264
rtoes -9.45299
lfemur -18.3108 -13.0707 -15.8531
ltibia 18.7157
lfoot -5.66891 16.0281
ltoes -20.452
1963
root 0.498852 18.2115 0.573485 13.3714 -1.20308 -0.564416
lowerback 2.33054 -0.768061 5.02977
upperback -11.6142 -0.07436 4.35118
thorax -14.0487 -0.276776 2.02041
lowerneck -4.84784 1.13521 2.98035
upperneck -0.561508 1.44308 -8.57499
head 0.764901 0.621523 -3.25203
rclavicle 9.93923e-016 -1.90833e-014
rhumerus -34.3305 8.17089 -41.3592
rradius 103.42
rwrist 3.98192
rhand -39.1632 20.8637
rfingers 7.12502
rthumb -12.161 -8.76287
lclavicle 9.93923e-016 -1.90833e-014
lhumerus -19.9984 -1.13871 27.1969
lradius 89.4167
lwrist -10.8026
lhand -40.2816 20.767
lfingers 7.12502
lthumb -13.2393 50.3266
rfemur -18.8194 9.43133 16.2619
rtibia 15.4534
rfoot -6.29499 -13.3805
rtoes -10.2082
lfemur -18.0411 -13.3604 -15.9346
ltibia 18.5238
lfoot -5.52039 16.5122
ltoes -20.4829
1964
root 0.49674 18.2124 0.582229 13.2986 -1.48451 -0.788815
lowerback 2.21287 -0.679877 5.17167
upperback -11.6372 0.047383 4.32879
thorax -14.0037 -0.236466 1.89755
lowerneck -4.70423 1.10035 2.89624
upperneck -0.721435 1.38972 -8.4304
head 0.682116 0.602608 -3.18687
rclavicle 2.16675e-014 -5.40694e-014
rhumerus -33.7173 8.25308 -41.2796
rradius 104.065
rwrist 3.15952
rhand -38.8853 20.6259
rfingers 7.12502
rthumb -11.8931 -9.01628
lclavicle 2.16675e-014 -5.40694e-014
lhumerus -20.4733 -1.44616 27.5927
lradius 89.3591
lwrist -10.5696
lhand -39.9568 20.2218
lfingers 7.12502
lthumb -12.9262 49.8014
rfemur -18.6753 9.90208 16.4258
rtibia 15.2729
rfoot -6.34005 -13.4929
rtoes -9.60906
lfemur -17.757 -13.5703 -15.7185
ltibia 18.3062
lfoot -5.60044 17.0235
ltoes -19.6506
1965
root 0.487406 18.2123 0.591095 13.2671 -1.901 -0.904323
lowerback 2.0748 -0.579412 5.07296
upperback -11.6828 0.16244 4.31095
thorax -13.9683 -0.172545 1.91502
lowerneck -4.69445 1.10873 2.84274
upperneck -0.702527 1.40379 -8.31848
head 0.685161 0.610671 -3.13796
rclavicle 0 1.59028e-015
rhumerus -33.055 8.40436 -41.219
rradius 104.669
rwrist 2.3733
rhand -39.097 20.0383
rfingers 7.12502
rthumb -12.0972 -9.59204
lclavicle 0 1.59028e-015
lhumerus -21.0798 -1.75369 27.9736
lradius 89.3051
lwrist -10.4426
lhand -39.6299 19.5718
lfingers 7.12502
lthumb -12.611 49.1711
rfemur -18.6207 10.6684 16.4119
rtibia 15.0626
rfoot -6.34189 -13.8213
rtoes -8.69345
lfemur -17.5209 -13.7173 -15.6073
ltibia 18.0872
lfoot -5.66269 17.5917
ltoes -18.9407
1966
root 0.480468 18.2149 0.603858 13.26 -2.43496 -0.742994
lowerback 1.87228 -0.443876 4.70107
upperback -11.7403 0.285547 4.20324
thorax -13.9005 -0.0811146 1.9824
lowerneck -4.80409 1.12866 2.84292
upperneck -0.506613 1.44125 -8.23736
head 0.768142 0.62433 -3.1099
rclavicle -9.54166e-015 3.18055e-015
rhumerus -32.3878 8.51137 -41.1117
rradius 105.202
rwrist 1.60202
rhand -39.6381 19.3766
rfingers 7.12502
rthumb -12.6189 -10.2223
lclavicle -9.54166e-015 3.18055e-015
lhumerus -21.7347 -2.15283 28.3799
lradius 89.3456
lwrist -10.2844
lhand -39.2114 19.2309
lfingers 7.12502
lthumb -12.2075 48.8547
rfemur -18.5643 11.3817 16.0798
rtibia 14.7781
rfoot -6.09577 -14.1266
rtoes -9.49053
lfemur -17.2808 -13.9842 -15.8051
ltibia 17.8774
lfoot -5.77765 18.2729
ltoes -17.9234
1967
root 0.480626 18.2198 0.618728 13.2589 -2.78027 -0.688046
lowerback 1.65868 -0.348667 4.5994
upperback -11.824 0.382213 4.10797
thorax -13.863 -0.0315195 1.91955
lowerneck -4.79739 1.1327 2.86662
upperneck -0.35945 1.45496 -8.24519
head 0.815227 0.628578 -3.11731
rclavicle 6.95746e-015 -5.56597e-014
rhumerus -31.6985 8.61571 -40.9922
rradius 105.746
rwrist 0.755341
rhand -39.6131 18.7439
rfingers 7.12502
rthumb -12.5948 -10.8565
lclavicle 6.95746e-015 -5.56597e-014
lhumerus -22.4178 -2.61115 28.8161
lradius 89.355
lwrist -10.129
lhand -38.9189 19.0179
lfingers 7.12502
lthumb -11.9255 48.6583
rfemur -18.4401 11.7707 15.923
rtibia 14.5134
rfoot -6.04887 -14.2251
rtoes -9.12443
lfemur -17.0237 -14.4546 -15.8601
ltibia 17.6143
lfoot -5.90877 18.9777
ltoes -16.6021
1968
root 0.488634 18.2257 0.629346 13.2424 -2.85106 -0.759198
lowerback 1.51611 -0.342451 4.83357
upperback -11.9465 0.397612 4.02601
thorax -13.9229 -0.0580036 1.70024
lowerneck -4.57161 1.1544 2.82732
upperneck -0.387045 1.4855 -8.19223
head 0.76728 0.649733 -3.0909
rclavicle -1.63003e-014 3.97569e-014
rhumerus -30.962 8.72552 -40.9247
rradius 106.215
rwrist -0.0889311
rhand -39.191 18.3658
rfingers 7.12502
rthumb -12.1878 -11.2591
lclavicle -1.63003e-014 3.97569e-014
lhumerus -23.204 -3.18913 29.2248
lradius 89.3369
lwrist -9.96321
lhand -38.6308 18.7632
lfingers 7.12502
lthumb -11.6476 48.4194
rfemur -18.2813 11.8683 15.9661
rtibia 14.351
rfoot -6.09491 -14.2545
rtoes -8.88099
lfemur -16.7242 -14.9843 -15.7634
ltibia 17.2309
lfoot -5.91062 19.5002
ltoes -15.6338
1969
root 0.500927 18.2321 0.638032 13.2102 -2.81051 -0.801684
lowerback 1.37406 -0.348809 5.13903
upperback -12.0392 0.395191 3.89823
thorax -13.9475 -0.104333 1.39178
lowerneck -4.48679 1.15995 2.77765
upperneck -0.35636 1.49623 -8.0476
head 0.760115 0.657943 -3.03189
rclavicle 2.38542e-015 -2.22639e-014
rhumerus -30.1714 8.63948 -40.7982
rradius 106.626
rwrist -1.01209
rhand -38.4555 18.2157
rfingers 7.12502
rthumb -11.4786 -11.45
lclavicle 2.38542e-015 -2.22639e-014
lhumerus -23.9028 -3.72909 29.6625
lradius 89.2995
lwrist -9.86851
lhand -38.3408 18.5332
lfingers 7.12502
lthumb -11.368 48.2051
rfemur -18.0459 11.8337 16.0026
rtibia 14.1395
rfoot -6.07074 -14.2727
rtoes -8.94547
lfemur -16.432 -15.3707 -15.7322
ltibia 16.8782
lfoot -6.01565 19.8213
ltoes -14.6003
1970
root 0.508399 18.2382 0.648822 13.1392 -2.95718 -0.656603
lowerback 1.23296 -0.293524 5.14972
upperback -12.0981 0.442076 3.71343
thorax -13.9249 -0.0977717 1.17514
lowerneck -4.54881 1.13953 2.7508
upperneck -0.207731 1.477 -7.90102
head 0.814832 0.646139 -2.97772
rclavicle 7.15625e-015 -1.74931e-014
rhumerus -29.3522 8.44337 -40.6647
rradius 106.99
rwrist -2.01906
rhand -37.5335 18.1478
rfingers 7.12502
rthumb -10.5893 -11.5654
lclavicle 7.15625e-015 -1.74931e-014
lhumerus -24.5532 -4.26241 30.1284
lradius 89.2842
lwrist -9.57908
lhand -38.1429 18.0887
lfingers 7.12502
lthumb -11.1771 47.771
rfemur -17.8263 11.9855 15.7776
rtibia 13.9106
rfoot -6.19469 -14.2377
rtoes -6.51166
lfemur -16.1092 -15.6788 -15.9485
ltibia 16.579
lfoot -6.02714 20.2297
ltoes -14.2937
1971
root 0.512266 18.2442 0.659149 13.1145 -3.14927 -0.670024
lowerback 1.10952 -0.235497 5.21098
upperback -12.2059 0.513422 3.63882
thorax -13.9761 -0.0779911 1.05222
lowerneck -4.52139 1.12998 2.61961
upperneck -0.0750349 1.47735 -7.76865
head 0.848805 0.646008 -2.90848
rclavicle -1.11319e-014 -4.77083e-015
rhumerus -28.527 8.33427 -40.5447
rradius 107.426
rwrist -2.79069
rhand -37.0565 18.1097
rfingers 7.12502
rthumb -10.1291 -11.6265
lclavicle -1.11319e-014 -4.77083e-015
lhumerus -25.3833 -4.87604 30.6698
lradius 89.2868
lwrist -9.29497
lhand -38.0222 17.8162
lfingers 7.12502
lthumb -11.0607 47.5047
rfemur -17.7096 12.288 15.6996
rtibia 13.724
rfoot -6.31098 -14.3013
rtoes -4.42361
lfemur -15.8287 -15.9583 -15.9708
ltibia 16.2816
lfoot -5.92843 20.6788
ltoes -14.2158
1972
root 0.51711 18.2463 0.670621 13.1673 -3.32283 -0.715941
lowerback 0.841757 -0.184233 5.32138
upperback -12.3192 0.567967 3.57007
thorax -13.9434 -0.0708075 0.909212
lowerneck -4.46761 1.13328 2.53789
upperneck -0.00999984 1.48853 -7.65751
head 0.85808 0.652764 -2.85542
rclavicle 5.1684e-015 -2.22639e-014
rhumerus -27.671 8.21963 -40.4846
rradius 107.859
rwrist -3.31045
rhand -36.9205 18.2806
rfingers 7.12502
rthumb -9.99793 -11.4619
lclavicle 5.1684e-015 -2.22639e-014
lhumerus -26.1973 -5.41698 31.241
lradius 89.2285
lwrist -9.10899
lhand -37.9253 17.7705
lfingers 7.12502
lthumb -10.9672 47.464
rfemur -17.631 12.5059 15.67
rtibia 13.5059
rfoot -6.22733 -14.3356
rtoes -4.59665
lfemur -15.6504 -16.3034 -15.9203
ltibia 16.0217
lfoot -5.86128 21.1468
ltoes -13.9012
